<svg xmlns="http://www.w3.org/2000/svg" width="200.000000pt" height="200.000000pt" viewBox="0 0 200.000000 200.000000" preserveAspectRatio="xMidYMid meet"><metadata>
Created by potrace 1.10, written by Peter Selinger 2001-2011
</metadata><g transform="translate(0.000000,200.000000) scale(0.100000,-0.100000)" fill="#000000" stroke="none"><path d="M1381 1704 c-42 -19 -70 -24 -129 -24 l-75 0 -51 -54 c-28 -29 -91 -97 -140 -150 -49 -54 -139 -143 -201 -200 -149 -136 -138 -133 -444 -117 -130 6 -254 14 -276 17 l-40 6 0 -336 c0 -329 0 -336 20 -336 11 0 65 7 120 15 132 19 299 19 384 0 40 -9 101 -35 147 -61 104 -59 141 -71 281 -89 204 -26 236 -32 323 -65 60 -22 102 -32 145 -32 53 0 62 3 82 29 34 42 29 75 -23 143 -25 34 -44 63 -42 65 3 3 51 -11 108 -30 57 -19 119 -35 136 -35 77 0 121 97 71 155 -17 20 -35 30 -58 32 -19 1 -52 5 -75 9 -25 4 -50 2 -62 -5 -20 -11 -46 -76 -37 -92 7 -10 -21 -19 -62 -19 -23 0 -45 9 -65 25 -36 30 -67 32 -101 5 -33 -26 -47 -25 -109 6 -71 36 -150 120 -190 201 -31 64 -33 74 -33 173 0 87 4 113 22 153 24 52 108 146 159 178 30 18 32 22 22 45 -10 21 -8 29 18 57 42 45 74 94 74 110 0 8 13 20 29 26 15 7 33 23 39 36 9 19 20 24 54 27 35 2 46 9 65 37 36 54 27 122 -16 120 -9 0 -40 -11 -70 -25z m85 -29 c1 -8 -2 -13 -7 -10 -4 3 -11 -7 -15 -22 -9 -34 -22 -44 -50 -37 -12 3 -26 -1 -33 -10 -8 -9 -20 -16 -28 -16 -8 0 -11 -4 -8 -10 3 -5 1 -10 -4 -10 -6 0 -11 5 -11 12 0 6 -3 8 -6 5 -4 -4 -1 -13 5 -21 9 -11 9 -16 0 -22 -8 -4 -9 -3 -5 4 4 7 3 12 -1 12 -5 0 -14 -9 -21 -21 -7 -11 -19 -18 -26 -16 -7 3 -13 -1 -13 -9 0 -7 5 -10 11 -7 6 4 5 -1 -3 -10 -8 -10 -11 -20 -8 -24 8 -7 -11 -33 -24 -33 -5 0 -9 5 -9 11 0 5 4 8 9 4 5 -3 12 -1 16 5 3 5 1 10 -6 10 -8 0 -8 4 1 15 7 8 8 15 3 15 -5 0 -15 -12 -22 -26 -9 -21 -9 -30 1 -43 7 -9 9 -13 4 -9 -9 8 -56 -43 -56 -61 0 -6 -4 -11 -10 -11 -5 0 -10 -5 -10 -11 0 -5 4 -8 9 -5 14 9 1 -32 -15 -45 -8 -6 -14 -8 -14 -3 0 4 -16 -7 -35 -26 -19 -19 -35 -40 -35 -46 0 -7 -8 -11 -18 -9 -10 2 -25 -1 -33 -7 -11 -8 -10 -9 4 -4 18 6 24 -9 7 -19 -6 -4 -8 -10 -5 -15 3 -4 -8 -30 -23 -56 -24 -44 -27 -58 -26 -144 0 -121 7 -199 16 -194 4 3 5 12 2 22 -5 15 -4 15 5 2 7 -8 16 -23 22 -34 9 -14 8 -17 -2 -10 -7 4 2 -11 20 -33 28 -35 31 -46 27 -84 -4 -30 -2 -39 4 -29 5 8 10 26 11 40 2 25 2 25 6 2 3 -15 10 -22 18 -18 8 3 17 0 21 -6 5 -7 2 -8 -7 -4 -8 4 -3 -2 11 -14 14 -12 19 -18 11 -14 -9 5 -12 3 -7 -5 4 -6 12 -9 17 -6 5 4 22 -3 38 -14 16 -12 38 -21 48 -21 10 0 24 -5 31 -12 9 -9 18 -9 37 0 13 6 32 9 42 5 12 -5 15 -2 10 10 -4 12 -2 14 10 10 12 -5 14 -3 8 8 -7 11 -6 12 7 2 8 -7 17 -10 20 -8 3 3 13 -6 22 -20 9 -14 21 -23 27 -20 5 4 8 2 7 -3 -2 -6 13 -30 33 -54 61 -74 65 -86 36 -116 -20 -19 -36 -25 -76 -26 -28 -1 -51 1 -51 4 0 4 -33 17 -72 30 -40 13 -80 25 -88 28 -15 5 -28 7 -100 18 -19 2 -48 7 -65 9 -114 17 -170 23 -176 19 -4 -2 -10 0 -14 6 -3 5 -21 10 -38 10 -25 0 -29 2 -17 11 12 9 11 10 -7 6 -12 -3 -23 -1 -25 3 -2 5 -10 10 -18 12 -8 2 -17 5 -20 8 -8 8 -83 45 -91 45 -4 0 -11 4 -16 9 -5 5 -2 6 7 1 12 -6 12 -5 3 5 -6 7 -26 14 -45 15 -18 2 -33 4 -33 5 0 4 -31 9 -110 19 -63 9 -189 2 -290 -15 -65 -10 -105 -9 -110 4 -7 18 -6 542 1 568 5 18 12 20 61 17 30 -2 60 -6 65 -9 5 -4 113 -8 238 -10 190 -3 230 -1 240 11 7 8 19 15 26 15 8 0 14 5 14 11 0 5 5 7 12 3 8 -5 9 -2 5 9 -3 9 -3 16 1 15 14 -3 42 14 37 23 -3 4 4 6 15 4 11 -2 18 0 15 5 -6 10 109 130 125 130 6 0 9 4 6 9 -5 8 6 20 76 76 9 7 20 10 24 7 4 -4 4 -1 0 6 -5 8 8 29 37 57 41 41 67 59 52 36 -3 -5 -1 -12 3 -15 5 -3 9 7 8 21 -1 20 8 33 34 51 19 14 27 22 17 19 -11 -4 -16 -3 -12 3 3 6 13 10 21 10 8 0 13 4 10 9 -3 4 31 9 76 10 78 2 158 26 174 53 8 12 27 -5 30 -27z m256 -1068 c9 -1 15 -3 13 -5 -2 -2 7 -16 21 -30 25 -28 32 -48 13 -36 -7 4 -10 1 -7 -7 6 -17 -15 -39 -37 -39 -9 0 -14 -4 -11 -9 3 -5 -5 -8 -18 -7 -13 0 -22 4 -20 7 4 7 -64 24 -78 21 -5 -1 -8 2 -8 8 0 6 -5 10 -11 10 -5 0 -7 -5 -3 -12 4 -6 3 -8 -4 -4 -6 3 -8 16 -5 29 3 12 6 32 7 45 1 15 6 20 15 17 11 -4 11 -2 3 8 -11 13 29 14 130 4z"></path><path d="M1435 1690 c-3 -5 1 -10 10 -10 9 0 13 5 10 10 -3 6 -8 10 -10 10 -2 0 -7 -4 -10 -10z"></path><path d="M940 1385 c-7 -9 -8 -15 -2 -15 5 0 12 7 16 15 3 8 4 15 2 15 -2 0 -9 -7 -16 -15z"></path><path d="M1055 1270 c-2 -3 0 -11 4 -18 5 -9 12 -7 25 7 18 19 17 20 -4 18 -12 -1 -23 -4 -25 -7z"></path><path d="M1290 510 c-13 -8 -13 -10 2 -10 9 0 20 5 23 10 8 13 -5 13 -25 0z"></path><path d="M1440 463 c0 -7 5 -15 10 -18 6 -3 10 -11 10 -16 0 -6 -5 -7 -12 -3 -7 5 -8 3 -3 -5 5 -9 11 -9 17 -3 7 7 5 18 -6 33 -9 13 -16 18 -16 12z"></path><path d="M1051 1634 c0 -11 3 -14 6 -6 3 7 2 16 -1 19 -3 4 -6 -2 -5 -13z"></path><path d="M979 1583 c-13 -16 -12 -17 4 -4 9 7 17 15 17 17 0 8 -8 3 -21 -13z"></path><path d="M1355 1528 c-5 -13 -20 -27 -32 -33 -13 -5 -23 -18 -23 -28 0 -10 -7 -20 -15 -23 -38 -15 4 -88 58 -102 49 -13 47 -38 -5 -46 -73 -12 -162 -61 -216 -121 -101 -110 -117 -268 -42 -414 26 -53 106 -131 160 -158 41 -20 45 -21 66 -5 27 20 30 32 9 32 -31 0 -112 49 -149 90 -81 90 -107 216 -66 324 29 76 94 147 169 183 47 24 69 28 136 28 97 -1 170 -30 235 -95 65 -65 85 -118 85 -226 l0 -90 27 10 c40 15 45 54 13 102 -22 32 -26 48 -23 94 3 64 -15 96 -85 154 -46 38 -161 96 -189 96 -30 0 -20 25 18 43 23 11 40 29 50 53 14 32 13 39 -3 72 -20 40 -66 68 -128 77 -35 6 -41 4 -50 -17z m89 -62 c-3 -22 -9 -45 -12 -51 -10 -16 -11 -39 -3 -50 9 -12 8 -26 -3 -43 -4 -7 -3 -18 3 -25 7 -9 5 -13 -9 -13 -13 0 -17 6 -14 23 3 14 -2 26 -13 32 -10 6 -13 11 -7 11 12 0 25 46 16 55 -3 3 -7 15 -9 27 -2 12 -10 29 -18 39 -13 13 -13 18 -3 26 19 15 41 20 61 15 15 -4 17 -11 11 -46z m56 5 c15 -29 12 -62 -7 -83 -24 -26 -47 -24 -38 5 4 12 9 39 12 60 6 41 17 47 33 18z m-126 -88 c12 -37 -28 -20 -52 22 -9 16 -7 24 11 43 l22 24 6 -34 c3 -18 9 -43 13 -55z m-266 -273 c-7 -10 -14 -17 -17 -15 -4 4 18 35 25 35 2 0 -1 -9 -8 -20z"></path><path d="M1584 1399 c-3 -6 -2 -15 3 -20 5 -5 9 -1 9 11 0 23 -2 24 -12 9z"></path><path d="M1660 1241 c0 -6 4 -13 10 -16 6 -3 7 1 4 9 -7 18 -14 21 -14 7z"></path><path d="M1485 1089 c-36 -60 -70 -105 -85 -112 -30 -15 -38 -57 -15 -81 21 -21 31 -20 55 4 14 14 18 28 14 44 -4 16 11 56 50 135 31 61 53 111 49 111 -5 0 -35 -46 -68 -101z m-61 -154 c-4 -8 -11 -12 -17 -8 -8 5 -7 8 1 11 7 2 9 9 6 14 -4 7 -2 8 4 4 6 -4 9 -13 6 -21z"></path><path d="M1742 1163 c-10 -4 -6 -13 14 -34 24 -25 26 -32 16 -54 -19 -42 -14 -72 20 -111 29 -32 36 -36 70 -31 65 9 111 38 121 76 15 61 -20 109 -108 145 -36 15 -106 20 -133 9z m122 -39 c30 -14 58 -30 61 -35 4 -5 12 -6 18 -3 7 4 9 3 4 -1 -4 -5 1 -18 10 -29 16 -19 16 -19 1 -7 -16 12 -16 10 -8 -21 12 -41 12 -41 0 -33 -5 3 -10 1 -10 -6 0 -7 -3 -10 -6 -7 -3 4 -22 0 -41 -9 -44 -18 -93 -3 -93 29 0 10 -4 17 -8 14 -5 -3 -9 1 -9 8 0 7 6 13 13 13 7 0 11 -4 9 -8 -3 -4 2 -10 11 -13 15 -6 15 -4 0 19 -10 15 -14 34 -10 49 3 13 1 27 -5 30 -8 6 -5 36 4 36 1 0 28 -12 59 -26z"></path><path d="M1603 1137 c0 -8 6 -14 14 -14 9 0 10 4 2 14 -6 7 -12 13 -14 13 -1 0 -2 -6 -2 -13z"></path><path d="M1363 1025 c0 -8 4 -12 9 -9 5 3 6 10 3 15 -9 13 -12 11 -12 -6z"></path><path d="M1396 1032 c-3 -5 1 -9 9 -9 8 0 12 4 9 9 -3 4 -7 8 -9 8 -2 0 -6 -4 -9 -8z"></path><path d="M1497 993 c3 -7 6 -13 8 -13 2 0 5 6 8 13 3 8 -1 14 -8 14 -7 0 -11 -6 -8 -14z"></path><path d="M1806 855 c-3 -8 -14 -15 -24 -15 -10 0 -29 -11 -41 -24 -19 -20 -22 -33 -19 -77 l3 -54 55 -22 c30 -13 68 -23 83 -23 62 0 106 44 107 106 0 48 -22 73 -93 103 -58 25 -63 25 -71 6z m138 -80 c3 -9 2 -13 -4 -10 -13 8 -13 -1 1 -27 9 -16 8 -19 -2 -13 -9 6 -10 3 -6 -9 6 -14 3 -17 -9 -12 -14 5 -15 4 -5 -8 9 -11 8 -15 -4 -20 -8 -3 -22 -3 -30 0 -8 4 -15 1 -15 -5 0 -6 -5 -11 -11 -11 -5 0 -8 4 -5 9 5 8 -24 16 -84 23 -22 3 -27 96 -5 104 8 3 12 10 9 15 -3 5 1 6 9 3 8 -3 18 -1 22 5 3 6 12 11 18 11 8 0 8 -3 -1 -9 -11 -7 -10 -9 3 -14 9 -4 13 -3 10 3 -3 6 -1 10 5 10 6 0 9 4 6 8 -3 5 17 -2 43 -15 27 -12 51 -30 55 -38z"></path><path d="M1683 813 c0 -9 4 -10 14 -2 7 6 13 12 13 14 0 1 -6 2 -13 2 -8 0 -14 -6 -14 -14z"></path><path d="M1677 753 c-9 -17 -31 -43 -49 -57 l-33 -26 41 0 c55 0 74 22 65 75 l-7 40 -17 -32z"></path><path d="M1973 665 c0 -8 4 -12 9 -9 5 3 6 10 3 15 -9 13 -12 11 -12 -6z"></path><path d="M1507 629 c-10 -6 -38 -11 -62 -12 l-44 -2 21 -22 c22 -24 71 -31 96 -14 8 4 12 20 10 34 -2 22 -6 24 -21 16z"></path><path d="M1826 445 c-9 -26 -7 -32 5 -12 6 10 9 21 6 23 -2 3 -7 -2 -11 -11z"></path><path d="M647 429 c7 -7 15 -10 18 -7 3 3 -2 9 -12 12 -14 6 -15 5 -6 -5z"></path><path d="M1556 252 c-2 -4 4 -8 14 -8 10 0 16 4 14 8 -3 4 -9 8 -14 8 -5 0 -11 -4 -14 -8z"></path></g></svg>